# xmcd CD database file
#
# Track frame offsets:
#	150
#	14170
#	47000
#	72875
#	94730
#	115760
#	135970
#	157915
#	183080
#	223700
#
# Disc length: 3346 seconds
#
# Revision: 7
# Processed by: cddbd v1.5.2PL0 Copyright (c) Steve Scherf et al.
# Submitted via: CDex 1.70beta3
#
DISCID=7f0d100a
DTITLE=Gary Moore - Old New Ballads Blues
DYEAR=2006
DGENRE=Blues Rock
TTITLE0=Done Something Wrong
TTITLE1=You Know My Love
TTITLE2=Midnight Blues (2006)
TTITLE3=Ain't Nobody
TTITLE4=Gonna Rain Today
TTITLE5=All Your Love (2006)
TTITLE6=Flesh and Blood
TTITLE7=Cut It Out
TTITLE8=No Reason To Cry
TTITLE9=I'll Play The Blues For You
EXTD=YEAR: 2006
EXTT0=
EXTT1=
EXTT2=
EXTT3=
EXTT4=
EXTT5=
EXTT6=
EXTT7=
EXTT8=
EXTT9=
PLAYORDER=
